# xmcd CD database file
#
# Track frame offsets:
#	150
#	19358
#	38390
#
# Disc length: 767 seconds
#
# Revision: 0
# Processed by: cddbd v1.5.1PL0 Copyright (c) Steve Scherf et al.
# Submitted via: CDex 1.51
#
DISCID=1802fd03
DTITLE=KINYA - aerial
DYEAR=1900
DGENRE=JPop
TTITLE0=aerial
TTITLE1=Season
TTITLE2=aerial instrumental
EXTD=
EXTT0=
EXTT1=
EXTT2=
PLAYORDER=
